<svg width="208" height="90" viewBox="0 0 208 90" fill="none" xmlns="http://www.w3.org/2000/svg">
<circle cx="26.1714" cy="26.1714" r="26.1714" fill="#4A5FB0"/>
<circle cx="104" cy="26.1714" r="26.1714" fill="#1B3E89"/>
<circle cx="181.829" cy="26.1714" r="26.1714" fill="#182F60"/>
<path d="M16.0653 65.8882V83.3428H13.2528L5.02841 71.4536H4.88352V83.3428H1.72159V65.8882H4.55114L12.767 77.786H12.9205V65.8882H16.0653ZM25.0845 83.5985C23.8061 83.5985 22.6982 83.3172 21.7607 82.7547C20.8232 82.1922 20.0959 81.4053 19.5788 80.3939C19.0675 79.3825 18.8118 78.2007 18.8118 76.8485C18.8118 75.4962 19.0675 74.3115 19.5788 73.2945C20.0959 72.2774 20.8232 71.4877 21.7607 70.9252C22.6982 70.3627 23.8061 70.0814 25.0845 70.0814C26.3629 70.0814 27.4709 70.3627 28.4084 70.9252C29.3459 71.4877 30.0703 72.2774 30.5817 73.2945C31.0987 74.3115 31.3572 75.4962 31.3572 76.8485C31.3572 78.2007 31.0987 79.3825 30.5817 80.3939C30.0703 81.4053 29.3459 82.1922 28.4084 82.7547C27.4709 83.3172 26.3629 83.5985 25.0845 83.5985ZM25.1016 81.1269C25.7947 81.1269 26.3743 80.9365 26.8402 80.5558C27.3061 80.1695 27.6527 79.6524 27.88 79.0047C28.1129 78.357 28.2294 77.6354 28.2294 76.8399C28.2294 76.0388 28.1129 75.3144 27.88 74.6666C27.6527 74.0132 27.3061 73.4933 26.8402 73.107C26.3743 72.7206 25.7947 72.5274 25.1016 72.5274C24.3913 72.5274 23.8004 72.7206 23.3288 73.107C22.8629 73.4933 22.5135 74.0132 22.2805 74.6666C22.0533 75.3144 21.9396 76.0388 21.9396 76.8399C21.9396 77.6354 22.0533 78.357 22.2805 79.0047C22.5135 79.6524 22.8629 80.1695 23.3288 80.5558C23.8004 80.9365 24.3913 81.1269 25.1016 81.1269ZM33.9759 83.3428V70.2519H36.9673V72.4337H37.1037C37.3423 71.678 37.7514 71.0956 38.331 70.6865C38.9162 70.2718 39.5838 70.0644 40.3338 70.0644C40.5043 70.0644 40.6946 70.0729 40.9048 70.0899C41.1207 70.1013 41.2997 70.1212 41.4418 70.1496V72.9877C41.3111 72.9422 41.1037 72.9024 40.8196 72.8683C40.5412 72.8286 40.2713 72.8087 40.0099 72.8087C39.4474 72.8087 38.9418 72.9308 38.4929 73.1752C38.0497 73.4138 37.7003 73.7462 37.4446 74.1723C37.1889 74.5985 37.0611 75.0899 37.0611 75.6468V83.3428H33.9759ZM50.7315 70.2519V72.6382H43.206V70.2519H50.7315ZM45.0639 67.1155H48.1491V79.4053C48.1491 79.82 48.2116 80.1382 48.3366 80.3598C48.4673 80.5757 48.6378 80.7235 48.848 80.803C49.0582 80.8825 49.2912 80.9223 49.5469 80.9223C49.7401 80.9223 49.9162 80.9081 50.0753 80.8797C50.2401 80.8513 50.3651 80.8257 50.4503 80.803L50.9702 83.2149C50.8054 83.2718 50.5696 83.3343 50.2628 83.4024C49.9616 83.4706 49.5923 83.5104 49.1548 83.5218C48.3821 83.5445 47.6861 83.428 47.0668 83.1723C46.4474 82.911 45.956 82.5075 45.5923 81.9621C45.2344 81.4166 45.0582 80.7348 45.0639 79.9166V67.1155ZM56.6783 75.6723V83.3428H53.593V65.8882H56.6101V72.4763H56.7635C57.0703 71.7377 57.5447 71.1553 58.1868 70.7291C58.8345 70.2973 59.6584 70.0814 60.6584 70.0814C61.5675 70.0814 62.3601 70.2718 63.0362 70.6524C63.7124 71.0331 64.2351 71.5899 64.6044 72.3229C64.9794 73.0558 65.1669 73.9507 65.1669 75.0075V83.3428H62.0817V75.4848C62.0817 74.6041 61.8544 73.9195 61.3999 73.4308C60.951 72.9365 60.3203 72.6894 59.5078 72.6894C58.9624 72.6894 58.4737 72.8087 58.0419 73.0473C57.6158 73.2803 57.2805 73.6183 57.0362 74.0615C56.7976 74.5047 56.6783 75.0416 56.6783 75.6723ZM71.397 65.8882V83.3428H68.3118V65.8882H71.397ZM78.3366 83.607C77.5071 83.607 76.7599 83.4593 76.0952 83.1638C75.4361 82.8627 74.9134 82.4195 74.527 81.8343C74.1463 81.249 73.956 80.5274 73.956 79.6695C73.956 78.9308 74.0923 78.32 74.3651 77.8371C74.6378 77.3541 75.0099 76.9678 75.4815 76.678C75.9531 76.3882 76.4844 76.1695 77.0753 76.0218C77.6719 75.8683 78.2884 75.7575 78.9247 75.6894C79.6918 75.6098 80.3139 75.5388 80.7912 75.4763C81.2685 75.4081 81.6151 75.3058 81.831 75.1695C82.0526 75.0274 82.1634 74.8087 82.1634 74.5132V74.4621C82.1634 73.82 81.973 73.3229 81.5923 72.9706C81.2116 72.6183 80.6634 72.4422 79.9474 72.4422C79.1918 72.4422 78.5923 72.607 78.1491 72.9365C77.7116 73.2661 77.4162 73.6553 77.2628 74.1041L74.3821 73.695C74.6094 72.8996 74.9844 72.2348 75.5071 71.7007C76.0298 71.161 76.669 70.7575 77.4247 70.4905C78.1804 70.2178 79.0156 70.0814 79.9304 70.0814C80.5611 70.0814 81.1889 70.1553 81.8139 70.303C82.4389 70.4507 83.0099 70.695 83.527 71.036C84.044 71.3712 84.4588 71.8286 84.7713 72.4081C85.0895 72.9877 85.2486 73.7121 85.2486 74.5814V83.3428H82.2827V81.5445H82.1804C81.9929 81.9081 81.7287 82.249 81.3878 82.5672C81.0526 82.8797 80.6293 83.1325 80.1179 83.3257C79.6122 83.5132 79.0185 83.607 78.3366 83.607ZM79.1378 81.3399C79.7571 81.3399 80.294 81.2178 80.7486 80.9735C81.2031 80.7235 81.5526 80.3939 81.7969 79.9848C82.0469 79.5757 82.1719 79.1297 82.1719 78.6468V77.1041C82.0753 77.1837 81.9105 77.2575 81.6776 77.3257C81.4503 77.3939 81.1946 77.4536 80.9105 77.5047C80.6264 77.5558 80.3452 77.6013 80.0668 77.6411C79.7884 77.6808 79.5469 77.7149 79.3423 77.7433C78.8821 77.8058 78.4702 77.9081 78.1065 78.0502C77.7429 78.1922 77.456 78.3911 77.2457 78.6468C77.0355 78.8968 76.9304 79.2206 76.9304 79.6183C76.9304 80.1865 77.1378 80.6155 77.5526 80.9053C77.9673 81.195 78.4957 81.3399 79.1378 81.3399ZM91.4361 75.6723V83.3428H88.3509V70.2519H91.2997V72.4763H91.4531C91.7543 71.7433 92.2344 71.161 92.8935 70.7291C93.5582 70.2973 94.3793 70.0814 95.3565 70.0814C96.2599 70.0814 97.0469 70.2746 97.7173 70.661C98.3935 71.0473 98.9162 71.607 99.2855 72.3399C99.6605 73.0729 99.8452 73.9621 99.8395 75.0075V83.3428H96.7543V75.4848C96.7543 74.6098 96.527 73.9252 96.0724 73.4308C95.6236 72.9365 95.0014 72.6894 94.206 72.6894C93.6662 72.6894 93.1861 72.8087 92.7656 73.0473C92.3509 73.2803 92.0241 73.6183 91.7855 74.0615C91.5526 74.5047 91.4361 75.0416 91.4361 75.6723ZM108.771 83.5985C107.459 83.5985 106.325 83.3257 105.371 82.7803C104.422 82.2291 103.692 81.4507 103.18 80.445C102.669 79.4337 102.413 78.2433 102.413 76.874C102.413 75.5274 102.669 74.3456 103.18 73.3286C103.697 72.3058 104.419 71.5104 105.345 70.9422C106.271 70.3683 107.359 70.0814 108.609 70.0814C109.416 70.0814 110.178 70.2121 110.893 70.4735C111.615 70.7291 112.251 71.1269 112.803 71.6666C113.359 72.2064 113.797 72.8939 114.115 73.7291C114.433 74.5587 114.592 75.5473 114.592 76.695V77.6411H103.862V75.5615H111.635C111.629 74.9706 111.501 74.445 111.251 73.9848C111.001 73.5189 110.652 73.1524 110.203 72.8854C109.76 72.6183 109.243 72.4848 108.652 72.4848C108.021 72.4848 107.467 72.6382 106.99 72.945C106.513 73.2462 106.141 73.6439 105.874 74.1382C105.612 74.6269 105.479 75.1638 105.473 75.749V77.5644C105.473 78.3257 105.612 78.9791 105.891 79.5246C106.169 80.0644 106.558 80.4791 107.058 80.7689C107.558 81.053 108.143 81.195 108.814 81.195C109.263 81.195 109.669 81.1325 110.033 81.0075C110.396 80.8769 110.712 80.6865 110.979 80.4365C111.246 80.1865 111.447 79.8769 111.584 79.5075L114.464 79.8314C114.283 80.5928 113.936 81.2575 113.425 81.8257C112.919 82.3882 112.271 82.8257 111.482 83.1382C110.692 83.445 109.788 83.5985 108.771 83.5985ZM134.985 71.4621C134.843 71.0019 134.647 70.5899 134.397 70.2263C134.153 69.857 133.857 69.5416 133.511 69.2803C133.17 69.0189 132.778 68.8229 132.335 68.6922C131.891 68.5558 131.408 68.4877 130.886 68.4877C129.948 68.4877 129.113 68.7235 128.38 69.195C127.647 69.6666 127.07 70.3598 126.65 71.2746C126.235 72.1837 126.028 73.2916 126.028 74.5985C126.028 75.9166 126.235 77.0331 126.65 77.9479C127.065 78.8627 127.641 79.5587 128.38 80.036C129.119 80.5075 129.977 80.7433 130.954 80.7433C131.84 80.7433 132.607 80.5729 133.255 80.232C133.908 79.8911 134.411 79.4081 134.763 78.7831C135.116 78.1524 135.292 77.4138 135.292 76.5672L136.008 76.678H131.269V74.2064H138.352V76.303C138.352 77.7973 138.033 79.0899 137.397 80.1808C136.761 81.2718 135.886 82.1127 134.772 82.7036C133.658 83.2888 132.38 83.5814 130.937 83.5814C129.329 83.5814 127.917 83.2206 126.701 82.499C125.491 81.7718 124.545 80.7405 123.863 79.4053C123.187 78.0644 122.849 76.4735 122.849 74.6325C122.849 73.2235 123.048 71.9649 123.445 70.857C123.849 69.749 124.411 68.8087 125.133 68.036C125.854 67.2575 126.701 66.6666 127.673 66.2632C128.644 65.8541 129.701 65.6496 130.843 65.6496C131.809 65.6496 132.71 65.7916 133.545 66.0757C134.38 66.3541 135.121 66.7519 135.769 67.2689C136.423 67.786 136.96 68.3996 137.38 69.1098C137.8 69.82 138.076 70.6041 138.207 71.4621H134.985ZM141.273 83.3428V70.2519H144.264V72.4337H144.401C144.639 71.678 145.048 71.0956 145.628 70.6865C146.213 70.2718 146.881 70.0644 147.631 70.0644C147.801 70.0644 147.991 70.0729 148.202 70.0899C148.418 70.1013 148.597 70.1212 148.739 70.1496V72.9877C148.608 72.9422 148.401 72.9024 148.116 72.8683C147.838 72.8286 147.568 72.8087 147.307 72.8087C146.744 72.8087 146.239 72.9308 145.79 73.1752C145.347 73.4138 144.997 73.7462 144.741 74.1723C144.486 74.5985 144.358 75.0899 144.358 75.6468V83.3428H141.273ZM155.96 83.5985C154.681 83.5985 153.573 83.3172 152.636 82.7547C151.698 82.1922 150.971 81.4053 150.454 80.3939C149.942 79.3825 149.687 78.2007 149.687 76.8485C149.687 75.4962 149.942 74.3115 150.454 73.2945C150.971 72.2774 151.698 71.4877 152.636 70.9252C153.573 70.3627 154.681 70.0814 155.96 70.0814C157.238 70.0814 158.346 70.3627 159.283 70.9252C160.221 71.4877 160.945 72.2774 161.457 73.2945C161.974 74.3115 162.232 75.4962 162.232 76.8485C162.232 78.2007 161.974 79.3825 161.457 80.3939C160.945 81.4053 160.221 82.1922 159.283 82.7547C158.346 83.3172 157.238 83.5985 155.96 83.5985ZM155.977 81.1269C156.67 81.1269 157.249 80.9365 157.715 80.5558C158.181 80.1695 158.528 79.6524 158.755 79.0047C158.988 78.357 159.104 77.6354 159.104 76.8399C159.104 76.0388 158.988 75.3144 158.755 74.6666C158.528 74.0132 158.181 73.4933 157.715 73.107C157.249 72.7206 156.67 72.5274 155.977 72.5274C155.266 72.5274 154.675 72.7206 154.204 73.107C153.738 73.4933 153.388 74.0132 153.156 74.6666C152.928 75.3144 152.815 76.0388 152.815 76.8399C152.815 77.6354 152.928 78.357 153.156 79.0047C153.388 79.6524 153.738 80.1695 154.204 80.5558C154.675 80.9365 155.266 81.1269 155.977 81.1269ZM167.178 83.3428L163.479 70.2519H166.624L168.925 79.4564H169.044L171.396 70.2519H174.507L176.859 79.4053H176.987L179.254 70.2519H182.408L178.7 83.3428H175.487L173.033 74.4962H172.854L170.399 83.3428H167.178ZM191.099 70.2519V72.6382H183.573V70.2519H191.099ZM185.431 67.1155H188.516V79.4053C188.516 79.82 188.579 80.1382 188.704 80.3598C188.835 80.5757 189.005 80.7235 189.215 80.803C189.425 80.8825 189.658 80.9223 189.914 80.9223C190.107 80.9223 190.283 80.9081 190.442 80.8797C190.607 80.8513 190.732 80.8257 190.817 80.803L191.337 83.2149C191.173 83.2718 190.937 83.3343 190.63 83.4024C190.329 83.4706 189.96 83.5104 189.522 83.5218C188.749 83.5445 188.053 83.428 187.434 83.1723C186.815 82.911 186.323 82.5075 185.96 81.9621C185.602 81.4166 185.425 80.7348 185.431 79.9166V67.1155ZM197.045 75.6723V83.3428H193.96V65.8882H196.977V72.4763H197.131C197.438 71.7377 197.912 71.1553 198.554 70.7291C199.202 70.2973 200.026 70.0814 201.026 70.0814C201.935 70.0814 202.727 70.2718 203.403 70.6524C204.08 71.0331 204.602 71.5899 204.972 72.3229C205.347 73.0558 205.534 73.9507 205.534 75.0075V83.3428H202.449V75.4848C202.449 74.6041 202.222 73.9195 201.767 73.4308C201.318 72.9365 200.688 72.6894 199.875 72.6894C199.33 72.6894 198.841 72.8087 198.409 73.0473C197.983 73.2803 197.648 73.6183 197.403 74.0615C197.165 74.5047 197.045 75.0416 197.045 75.6723Z" fill="black"/>
</svg>
