<svg width="24" height="24" viewBox="0 0 24 24" fill="none" xmlns="http://www.w3.org/2000/svg">
<g clip-path="url(#clip0_12_63)">
<path d="M9.72701 8.304L12.065 10.642C12.4285 11.0032 12.9201 11.2059 13.4325 11.2059C13.9449 11.2059 14.4365 11.0032 14.8 10.642L21.386 4.046C21.4322 4.00312 21.493 3.9793 21.556 3.9793C21.6191 3.9793 21.6798 4.00312 21.726 4.046L22.783 5.103C22.872 5.193 22.995 5.243 23.123 5.239C23.1837 5.253 23.2447 5.253 23.306 5.239C23.3993 5.20091 23.4784 5.1347 23.5324 5.04957C23.5863 4.96445 23.6124 4.86463 23.607 4.764V0.883997C23.607 0.755367 23.5559 0.632006 23.465 0.54105C23.374 0.450095 23.2506 0.398997 23.122 0.398997H19.242C19.1398 0.391368 19.0379 0.416287 18.9508 0.470181C18.8636 0.524076 18.7958 0.604176 18.757 0.698997C18.7195 0.786862 18.7096 0.884083 18.7287 0.9777C18.7478 1.07132 18.795 1.15689 18.864 1.223L20.009 2.329C20.0323 2.35079 20.0508 2.37712 20.0635 2.40636C20.0761 2.4356 20.0827 2.46713 20.0827 2.499C20.0827 2.53086 20.0761 2.56239 20.0635 2.59163C20.0508 2.62087 20.0323 2.6472 20.009 2.669L17.099 5.579C14.487 -0.614003 6.15201 -1.657 2.096 3.7C0.90201 5.27591 0.278318 7.21045 0.327005 9.187C0.329005 9.511 0.348338 9.83433 0.385005 10.157C0.413733 10.3935 0.528479 10.6111 0.707371 10.7684C0.886263 10.9258 1.11679 11.0117 1.35501 11.01H1.471C1.5978 10.9956 1.72051 10.9563 1.8321 10.8944C1.94369 10.8325 2.04196 10.7492 2.1213 10.6492C2.20063 10.5493 2.25946 10.4346 2.29441 10.3119C2.32937 10.1892 2.33977 10.0608 2.32501 9.934C2.30991 9.66888 2.30991 9.40312 2.32501 9.138C2.49801 3.87 8.31001 0.762997 12.786 3.546C14.1042 4.36581 15.1049 5.60905 15.624 7.072L13.607 9.12C13.5591 9.16356 13.4967 9.18771 13.432 9.18771C13.3673 9.18771 13.3049 9.16356 13.257 9.12L10.92 6.762C10.5565 6.40079 10.0649 6.19806 9.5525 6.19806C9.04008 6.19806 8.54847 6.40079 8.18501 6.762L0.619005 14.318C0.43773 14.5006 0.336417 14.7477 0.337355 15.005C0.338292 15.2623 0.441404 15.5087 0.624005 15.69C0.806607 15.8713 1.05374 15.9726 1.31104 15.9716C1.56834 15.9707 1.81473 15.8676 1.99601 15.685L2.55901 15.123C3.3989 16.0282 4.41426 16.7531 5.54324 17.2533C6.67223 17.7536 7.89122 18.0189 9.12601 18.033C11.0545 18.0373 12.9301 17.403 14.46 16.229C14.5049 16.1916 14.5615 16.1711 14.62 16.1711C14.6785 16.1711 14.7351 16.1916 14.78 16.229L16.138 17.587C16.1709 17.619 16.1939 17.6597 16.2044 17.7044C16.2148 17.749 16.2123 17.7957 16.197 17.839C16.1046 18.0975 16.0876 18.3769 16.1478 18.6448C16.2079 18.9126 16.3429 19.1579 16.537 19.352L20.3 23.125C21.304 24.23 23.128 23.833 23.583 22.41C23.6964 22.0548 23.7051 21.6743 23.6079 21.3143C23.5107 20.9543 23.3118 20.6299 23.035 20.38L19.281 16.588C19.007 16.3173 18.6382 16.1641 18.253 16.161C18.0863 16.161 17.9247 16.19 17.768 16.248C17.7248 16.2634 17.6782 16.2661 17.6335 16.2558C17.5889 16.2456 17.5481 16.2227 17.516 16.19L16.158 14.832C16.1193 14.7877 16.0979 14.7308 16.0979 14.672C16.0979 14.6131 16.1193 14.5563 16.158 14.512C16.7504 13.7294 17.2092 12.8543 17.516 11.922C17.5613 11.7995 17.5814 11.6692 17.5751 11.5388C17.5689 11.4083 17.5363 11.2805 17.4794 11.163C17.4226 11.0454 17.3425 10.9406 17.2442 10.8547C17.1458 10.7689 17.0311 10.7037 16.907 10.6632C16.7828 10.6228 16.6518 10.6078 16.5217 10.6191C16.3917 10.6305 16.2652 10.668 16.15 10.7295C16.0348 10.7909 15.9331 10.8749 15.8512 10.9766C15.7692 11.0782 15.7086 11.1954 15.673 11.321C15.2227 12.6946 14.35 13.8908 13.1795 14.739C12.009 15.5871 10.6005 16.0439 9.155 16.044C8.18007 16.0371 7.217 15.8296 6.3258 15.4342C5.4346 15.0388 4.63438 14.4642 3.975 13.746L9.407 8.304C9.4513 8.26525 9.50815 8.24389 9.56701 8.24389C9.62586 8.24389 9.68271 8.26525 9.72701 8.304Z" fill="black"/>
</g>
<defs>
<clipPath id="clip0_12_63">
<rect width="24" height="24" fill="white"/>
</clipPath>
</defs>
</svg>
